<?xml version="1.0" encoding="UTF-8" standalone="no"?>
<svg width="263px" height="146px" viewBox="0 0 263 146" version="1.1" xmlns="http://www.w3.org/2000/svg" xmlns:xlink="http://www.w3.org/1999/xlink">
    <!-- Generator: Sketch 41 (35326) - http://www.bohemiancoding.com/sketch -->
    <title>email</title>
    <desc>Created with Sketch.</desc>
    <defs></defs>
    <g id="Page-1" stroke="none" stroke-width="1" fill="none" fill-rule="evenodd" fill-opacity="0.15">
        <g id="Article" transform="translate(-59.000000, -821.000000)" fill="#D3D4D9">
            <g id="Group-4" transform="translate(59.000000, 821.000000)">
                <path d="M17.6662182,-4.56460365 C3.24408484,-4.56460365 -8.64013382,7.31972959 -8.64013382,21.741749 L-8.64013382,138.659018 C-8.64013382,153.081037 3.24408484,164.965371 17.6662182,164.965371 L222.271183,164.965371 C236.693319,164.965371 248.577536,153.081037 248.577536,138.659018 L248.577536,21.741749 C248.577536,7.31972959 236.693319,-4.56460365 222.271183,-4.56460365 L17.6662182,-4.56460365 Z M22.7813423,12.9729648 L217.156059,12.9729648 L123.074312,97.0072929 C121.792573,98.1524961 118.144829,98.1524961 116.86309,97.0072929 L22.7813423,12.9729648 Z M8.89743401,24.0251404 L74.5719741,82.7580186 L8.89743401,137.106358 L8.89743401,24.0251404 Z M231.039967,24.0251404 L231.039967,137.106358 L165.365427,82.7580186 L231.039967,24.0251404 Z M87.8164919,94.5409262 L105.171377,110.069274 C113.686124,117.678532 126.251271,117.678532 134.766024,110.069274 L152.120909,94.5409262 L216.059961,147.427802 L23.8774404,147.427802 L87.8164919,94.5409262 Z" id="email" transform="translate(119.968701, 80.200383) rotate(-20.000000) translate(-119.968701, -80.200383) "></path>
            </g>
        </g>
    </g>
</svg>