<?xml version="1.0" encoding="UTF-8" standalone="no"?>
<svg width="184px" height="46px" viewBox="0 0 184 46" version="1.1" xmlns="http://www.w3.org/2000/svg" xmlns:xlink="http://www.w3.org/1999/xlink">
    <!-- Generator: Sketch 41 (35326) - http://www.bohemiancoding.com/sketch -->
    <title>generic-logo</title>
    <desc>Created with Sketch.</desc>
    <defs>
        <linearGradient x1="50.4032272%" y1="2.41935443%" x2="50.0000009%" y2="100.000004%" id="linearGradient-1">
            <stop stop-color="#2294FE" offset="0%"></stop>
            <stop stop-color="#014F96" offset="100%"></stop>
        </linearGradient>
    </defs>
    <g id="Page-1" stroke="none" stroke-width="1" fill="none" fill-rule="evenodd">
        <g id="Article" transform="translate(-56.000000, -20.000000)">
            <g id="generic-logo" transform="translate(47.000000, 10.000000)">
                <g id="svg4692">
                    <g id="layer1" transform="translate(0.054555, 0.061840)">
                        <g id="g5286">
                            <g id="text4703" transform="translate(60.350038, 31.873367)" fill="#666666">
                                <path d="M12.6316422,1.07299533 L12.6316422,3.52156536 C11.8912636,3.11348424 11.146154,2.80978542 10.3963094,2.61047016 C9.65593338,2.40169148 8.90607727,2.29729509 8.14673979,2.29728098 C6.44768913,2.29729509 5.12832235,2.83825774 4.18863533,3.92017023 C3.24893664,4.99261673 2.77909018,6.50161795 2.77909454,8.44717774 C2.77909018,10.3927529 3.24893664,11.9065 4.18863533,12.9884214 C5.12832235,14.0608589 6.44768913,14.5970771 8.14673979,14.5970745 C8.90607727,14.5970771 9.65593338,14.4974252 10.3963094,14.2981215 C11.146154,14.0893313 11.8912636,13.7808879 12.6316422,13.3727901 L12.6316422,15.7928878 C11.9007553,16.1345493 11.1414075,16.3907951 10.3535965,16.5616252 C9.57525266,16.7324554 8.74471584,16.8178711 7.86198343,16.8178711 C5.46053695,16.8178711 3.55267573,16.0633698 2.13839427,14.5543673 C0.72410523,13.0453686 0.0169626999,11.0096409 0.0169642388,8.44717774 C0.0169626999,5.84676856 0.728851169,3.8015505 2.15263208,2.31151586 C3.58589718,0.821510726 5.5459636,0.0765011034 8.03283776,0.0764844334 C8.83963463,0.0765011034 9.62745851,0.161915517 10.3963094,0.332730239 C11.1651372,0.494085388 11.9102469,0.740840845 12.6316422,1.07299533" id="path5264"></path>
                                <path d="M23.3384563,2.29728098 C21.9336539,2.29729509 20.8231085,2.84774809 20.0068148,3.94864127 C19.1905097,5.04006975 18.7823609,6.53958063 18.7823648,8.44717774 C18.7823609,10.3547902 19.1857645,11.8590469 19.9925768,12.9599491 C20.8088704,14.0513686 21.9241623,14.5970771 23.3384563,14.5970745 C24.7337492,14.5970771 25.8395495,14.0466241 26.6558597,12.9457142 C27.472147,11.8448108 27.8802957,10.3452999 27.8803098,8.44717774 C27.8802957,6.55856132 27.472147,5.06379626 26.6558597,3.96287744 C25.8395495,2.85249262 24.7337492,2.29729509 23.3384563,2.29728098 M23.3384563,0.0764844334 C25.6164906,0.0765011034 27.4057043,0.816764911 28.7061014,2.29728098 C30.0064704,3.77782399 30.6566612,5.82778786 30.6566779,8.44717774 C30.6566612,11.0570927 30.0064704,13.1070565 28.7061014,14.5970745 C27.4057043,16.077606 25.6164906,16.8178711 23.3384563,16.8178711 C21.0509125,16.8178711 19.2569536,16.077606 17.9565731,14.5970745 C16.6656792,13.1070565 16.0202335,11.0570927 16.0202347,8.44717774 C16.0202335,5.82778786 16.6656792,3.77782399 17.9565731,2.29728098 C19.2569536,0.816764911 21.0509125,0.0765011034 23.3384563,0.0764844334" id="path5266"></path>
                                <path d="M47.4003138,3.52156536 C48.055237,2.34474683 48.8383145,1.47636012 49.7495487,0.916400099 C50.6607483,0.356472137 51.7333272,0.0765011034 52.9672881,0.0764844334 C54.6283413,0.0765011034 55.9097398,0.660170964 56.81149,1.82749658 C57.7131916,2.98536134 58.1640545,4.63672035 58.1640802,6.78158001 L58.1640802,16.4050313 L55.5300903,16.4050313 L55.5300903,6.86699571 C55.5300659,5.33902276 55.2595489,4.2048999 54.7185354,3.46462199 C54.1774783,2.72436972 53.3516879,2.35423846 52.2411617,2.35422435 C50.8838071,2.35423846 49.8112282,2.8050396 49.0234223,3.70663163 C48.2355817,4.6082493 47.8416698,5.83727821 47.8416851,7.39372348 L47.8416851,16.4050313 L45.2076952,16.4050313 L45.2076952,6.86699571 C45.2076824,5.32953242 44.9371654,4.19540955 44.3961416,3.46462199 C43.8550948,2.72436972 43.0198115,2.35423846 41.8902918,2.35422435 C40.551932,2.35423846 39.4888447,2.80978542 38.7010272,3.72086779 C37.9131982,4.62248547 37.5192862,5.84676856 37.5192914,7.39372348 L37.5192914,16.4050313 L34.8853014,16.4050313 L34.8853014,0.460853141 L37.5192914,0.460853141 L37.5192914,2.93789421 C38.1172726,1.9603794 38.8339073,1.23909629 39.669197,0.774042316 C40.5044726,0.309019115 41.4963709,0.0765011034 42.6448944,0.0764844334 C43.8028889,0.0765011034 44.7852956,0.3707083 45.5921155,0.959108588 C46.4084014,1.54753965 47.0111329,2.40169148 47.4003138,3.52156536" id="path5268"></path>
                                <path d="M65.8809589,14.0134046 L65.8809589,22.4695136 L63.246969,22.4695136 L63.246969,0.460853141 L65.8809589,0.460853141 L65.8809589,2.88095084 C66.4314807,1.93190708 67.1243858,1.22960466 67.9596755,0.774042316 C68.8044427,0.309019115 69.810579,0.0765011034 70.9780857,0.0764844334 C72.9144126,0.0765011034 74.4853126,0.845237237 75.6907922,2.3826954 C76.905734,3.92018305 77.5132119,5.9416746 77.5132299,8.44717774 C77.5132119,10.9526963 76.905734,12.9741891 75.6907922,14.5116601 C74.4853126,16.0491349 72.9144126,16.8178711 70.9780857,16.8178711 C69.810579,16.8178711 68.8044427,16.5900976 67.9596755,16.1345493 C67.1243858,15.669512 66.4314807,14.9624638 65.8809589,14.0134046 M74.7938128,8.44717774 C74.7937987,6.52059993 74.3951403,5.01159871 73.5978389,3.92017023 C72.8100022,2.81927577 71.7231851,2.26882276 70.3373852,2.26880866 C68.951566,2.26882276 67.8600038,2.81927577 67.0626947,3.92017023 C66.2748657,5.01159871 65.8809538,6.52059993 65.8809589,8.44717774 C65.8809538,10.3737722 66.2748657,11.887518 67.0626947,12.9884214 C67.8600038,14.0798409 68.951566,14.6255481 70.3373852,14.6255468 C71.7231851,14.6255481 72.8100022,14.0798409 73.5978389,12.9884214 C74.3951403,11.887518 74.7937987,10.3737722 74.7938128,8.44717774" id="path5270"></path>
                                <path d="M89.1027815,8.39023437 C86.9860895,8.39024207 85.5195999,8.63225171 84.7033062,9.1162633 C83.8870023,9.60029028 83.4788523,10.4259698 83.4788562,11.5933057 C83.4788523,12.5233867 83.7825919,13.2636518 84.390075,13.8141022 C85.0070394,14.3550674 85.8423227,14.6255481 86.8959248,14.6255468 C88.34817,14.6255481 89.5109213,14.1130578 90.3841826,13.088072 C91.2669124,12.0536036 91.7082838,10.6822156 91.7082966,8.97390552 L91.7082966,8.39023437 L89.1027815,8.39023437 M94.3280485,7.30830778 L94.3280485,16.4050313 L91.7082966,16.4050313 L91.7082966,13.9849323 C91.1102975,14.9529734 90.3651878,15.669512 89.4729638,16.1345493 C88.5807205,16.5900976 87.4891583,16.8178711 86.1982733,16.8178711 C84.5656694,16.8178711 83.2652863,16.3623228 82.2971204,15.4512276 C81.3384409,14.5306433 80.859103,13.3016132 80.8591043,11.7641358 C80.859103,9.97042282 81.4570893,8.61801555 82.6530658,7.70691265 C83.8585262,6.79582643 85.6524851,6.34027819 88.0349477,6.34026793 L91.7082966,6.34026793 L91.7082966,6.08402213 C91.7082838,4.87872999 91.3096266,3.9486541 90.5123227,3.29379188 C89.7244873,2.62946496 88.6139418,2.29729509 87.1806812,2.29728098 C86.269456,2.29729509 85.3819681,2.40643601 84.5182151,2.62470504 C83.6544518,2.84300228 82.823915,3.17042761 82.0266021,3.60698105 L82.0266021,1.18688207 C82.9852764,0.816764911 83.9154772,0.54153841 84.8172083,0.361201282 C85.7189278,0.171405865 86.596924,0.0765011034 87.4511982,0.0764844334 C89.7577099,0.0765011034 91.4804797,0.674407127 92.6195141,1.87020379 C93.7585229,3.06603122 94.3280331,4.87872999 94.3280485,7.30830778" id="path5272"></path>
                                <path d="M113.05074,6.78158001 L113.05074,16.4050313 L110.430988,16.4050313 L110.430988,6.86699571 C110.430975,5.35800474 110.136727,4.22862641 109.548245,3.47885815 C108.959737,2.72911554 108.076996,2.35423846 106.900017,2.35422435 C105.485722,2.35423846 104.37043,2.8050396 103.554137,3.70663163 C102.737832,4.6082493 102.329682,5.83727821 102.329689,7.39372348 L102.329689,16.4050313 L99.6956974,16.4050313 L99.6956974,0.460853141 L102.329689,0.460853141 L102.329689,2.93789421 C102.956145,1.9793601 103.691763,1.26282152 104.536544,0.788278479 C105.390803,0.31376493 106.373209,0.0765011034 107.483766,0.0764844334 C109.315682,0.0765011034 110.701492,0.645934801 111.6412,1.78478937 C112.580878,2.91418181 113.050724,4.57977698 113.05074,6.78158001" id="path5274"></path>
                                <path d="M124.939284,17.8855615 C124.198922,19.7836747 123.477541,21.0221952 122.775141,21.6011244 C122.072743,22.1800446 121.13305,22.4695072 119.956065,22.4695136 L117.863111,22.4695136 L117.863111,20.2771881 L119.400791,20.2771881 C120.122169,20.2771843 120.682187,20.1063542 121.080851,19.7646965 C121.479503,19.4230325 121.920873,18.6163349 122.404966,17.3445988 L122.874815,16.1487855 L116.425094,0.460853141 L119.201462,0.460853141 L124.184687,12.9314781 L129.16791,0.460853141 L131.944284,0.460853141 L124.939284,17.8855615" id="path5276"></path>
                            </g>
                            <g id="text4707" transform="translate(60.360769, 16.613924)" fill="#666666">
                                <path d="M5.25164367,6.41918105 C5.25163726,5.5632558 5.07400888,4.89991112 4.71875596,4.42914511 C4.36777242,3.95839013 3.87340779,3.72300976 3.23565953,3.72300335 C2.60218319,3.72300976 2.10781857,3.95839013 1.75256309,4.42914511 C1.40158211,4.89991112 1.22609419,5.5632558 1.22609547,6.41918105 C1.22609419,7.27083367 1.40158211,7.93203817 1.75256309,8.40279713 C2.10781857,8.87355865 2.60218319,9.10894005 3.23565953,9.10893877 C3.87340779,9.10894005 4.36777242,8.87355865 4.71875596,8.40279713 C5.07400888,7.93203817 5.25163726,7.27083367 5.25164367,6.41918105 M6.43298449,9.20523098 C6.43297808,10.4292089 6.16118373,11.3386332 5.61760271,11.9335053 C5.07400888,12.5326539 4.24150601,12.8322288 3.12009284,12.8322314 C2.70490843,12.8322288 2.31326904,12.8001314 1.9451721,12.7359392 C1.57707132,12.6760209 1.21967282,12.5818688 0.872977881,12.4534818 L0.872977881,11.3043969 C1.21967282,11.4926998 1.56209069,11.6317889 1.90023021,11.7216632 C2.23836461,11.8115336 2.58292293,11.8564695 2.93390391,11.8564721 C3.70861959,11.8564695 4.28858836,11.6531868 4.67381407,11.2466214 C5.05902825,10.844335 5.25163726,10.2344856 5.25164367,9.41707309 L5.25164367,8.83290185 C5.00766499,9.25658735 4.69520966,9.57328106 4.31427512,9.782983 C3.93333031,9.99268622 3.47748749,10.0975366 2.94674409,10.0975366 C2.06501586,10.0975366 1.35449977,9.76158516 0.815194537,9.08967981 C0.27588546,8.41777703 0.00623156229,7.52761163 0.00623284477,6.41918105 C0.00623156229,5.30647783 0.27588546,4.41417201 0.815194537,3.74226179 C1.35449977,3.07036439 2.06501586,2.73441249 2.94674409,2.73440505 C3.47748749,2.73441249 3.93333031,2.83926371 4.31427512,3.04895911 C4.69520966,3.25866862 5.00766499,3.57536208 5.25164367,3.99904065 L5.25164367,2.90773078 L6.43298449,2.90773078 L6.43298449,9.20523098" id="path5241"></path>
                                <path d="M15.0169673,6.20733766 L15.0169673,6.78509096 L9.58536757,6.78509096 C9.63672826,7.59822567 9.88070053,8.21877337 10.3172844,8.64673664 C10.7581453,9.07042214 11.3702158,9.28226553 12.1534997,9.28226424 C12.6071982,9.28226553 13.0459199,9.22663011 13.4696675,9.11535799 C13.8976843,9.00408844 14.3214254,8.83718219 14.7408933,8.61463923 L14.7408933,9.73162664 C14.3171445,9.91137262 13.8827024,10.0483204 13.4375657,10.1424737 C12.9924175,10.2366257 12.5408556,10.2837018 12.0828762,10.2837018 C10.9357737,10.2837018 10.0262272,9.94988925 9.35423548,9.28226424 C8.68651954,8.61464052 8.35266221,7.71163667 8.35266349,6.57324757 C8.35266221,5.39634954 8.66939845,4.46338795 9.30287222,3.77435919 C9.94062305,3.08106344 10.7988063,2.73441249 11.8774257,2.73440505 C12.8447504,2.73441249 13.6087689,3.04682625 14.1694838,3.67164763 C14.7344656,4.29220225 15.0169609,5.13743141 15.0169673,6.20733766 M13.8356265,5.86068671 C13.8270595,5.21446467 13.6451515,4.69876858 13.2898986,4.31359458 C12.9389151,3.92843264 12.4723713,3.73584872 11.8902659,3.73584231 C11.2311092,3.73584872 10.7025024,3.92201316 10.3044442,4.29433627 C9.91066179,4.66667117 9.68381061,5.19092666 9.62388937,5.86710593 L13.8356265,5.86068158" id="path5243"></path>
                                <path d="M22.9075551,5.75797527 L22.9075551,10.0975366 L21.7262143,10.0975366 L21.7262143,5.7964919 C21.7262092,5.11603357 21.5935214,4.60675542 21.3281536,4.26865834 C21.0627754,3.93057242 20.6647147,3.76152652 20.1339726,3.76152023 C19.4962153,3.76152652 18.9932902,3.96480961 18.6251945,4.37136991 C18.2570924,4.77794201 18.073044,5.33215473 18.0730453,6.03401219 L18.0730453,10.0975366 L16.8852843,10.0975366 L16.8852843,2.90773078 L18.0730453,2.90773078 L18.0730453,4.02471845 C18.355538,3.59248074 18.6872549,3.26936767 19.0681972,3.05537859 C19.4534139,2.8414035 19.8964165,2.73441249 20.3972064,2.73440505 C21.2232827,2.73441249 21.8481947,2.99119096 22.2719435,3.50474137 C22.6956782,4.01402542 22.9075487,4.76510228 22.9075551,5.75797527" id="path5245"></path>
                                <path d="M31.4273358,6.20733766 L31.4273358,6.78509096 L25.9957348,6.78509096 C26.0470955,7.59822567 26.2910678,8.21877337 26.7276529,8.64673664 C27.1685125,9.07042214 27.780583,9.28226553 28.5638682,9.28226424 C29.0175667,9.28226553 29.4562884,9.22663011 29.880036,9.11535799 C30.3080516,9.00408844 30.7317927,8.83718219 31.1512618,8.61463923 L31.1512618,9.73162664 C30.727513,9.91137262 30.2930709,10.0483204 29.8479342,10.1424737 C29.402786,10.2366257 28.9512228,10.2837018 28.4932434,10.2837018 C27.3461409,10.2837018 26.4365957,9.94988925 25.7646027,9.28226424 C25.096888,8.61464052 24.7630307,7.71163667 24.7630307,6.57324757 C24.7630307,5.39634954 25.079767,4.46338795 25.7132407,3.77435919 C26.3509916,3.08106344 27.2091748,2.73441249 28.2877929,2.73440505 C29.2551176,2.73441249 30.0191374,3.04682625 30.5798523,3.67164763 C31.1448341,4.29220225 31.4273281,5.13743141 31.4273358,6.20733766 M30.245995,5.86068671 C30.237428,5.21446467 30.0555188,4.69876858 29.7002658,4.31359458 C29.3492823,3.92843264 28.8827398,3.73584872 28.3006344,3.73584231 C27.6414764,3.73584872 27.1128696,3.92201316 26.7148127,4.29433627 C26.321029,4.66667117 26.0941778,5.19092666 26.0342566,5.86710593 L30.245995,5.86068158" id="path5247"></path>
                                <path d="M37.50739,4.01187948 C37.3746984,3.93485212 37.2291704,3.8792167 37.0708074,3.84497336 C36.9167151,3.80646276 36.7455055,3.78720444 36.5571812,3.78719816 C35.8894627,3.78720444 35.3758366,4.00546616 35.0163015,4.44198408 C34.6610409,4.87423294 34.4834112,5.4969221 34.4834138,6.31004911 L34.4834138,10.0975366 L33.2956528,10.0975366 L33.2956528,2.90773078 L34.4834138,2.90773078 L34.4834138,4.02471845 C34.7316644,3.58820104 35.0548207,3.2650881 35.452884,3.05537859 C35.8509409,2.8414035 36.3346046,2.73441249 36.9038787,2.73440505 C36.9851981,2.73441249 37.0750832,2.74083197 37.1735326,2.75366349 C37.2719731,2.76223058 37.3811184,2.77720881 37.5009699,2.79859973 L37.5073951,4.01187948" id="path5249"></path>
                                <path d="M38.759353,2.90773078 L39.9406939,2.90773078 L39.9406939,10.0975366 L38.759353,10.0975366 L38.759353,2.90773078 M38.759353,0.108841891 L39.9406939,0.108841891 L39.9406939,1.60457843 L38.759353,1.60457843 L38.759353,0.108841891" id="path5251"></path>
                                <path d="M47.5808906,3.18376796 L47.5808906,4.28791679 C47.2470281,4.1038979 46.9110304,3.9669494 46.5728985,3.87707064 C46.2390361,3.78292474 45.9008991,3.73584872 45.5584864,3.73584231 C44.7923236,3.73584872 44.1973729,3.97978836 43.7736343,4.46766187 C43.3498907,4.95126749 43.1380201,5.63172966 43.1380214,6.50905276 C43.1380201,7.38638356 43.3498907,8.0689859 43.7736343,8.55686365 C44.1973729,9.0404649 44.7923236,9.28226553 45.5584864,9.28226424 C45.9008991,9.28226553 46.2390361,9.23732839 46.5728985,9.1474554 C46.9110304,9.05330463 47.2470281,8.91421545 47.5808906,8.73019041 L47.5808906,9.82149963 C47.2513078,9.97556744 46.9088912,10.0911173 46.5536383,10.1681506 C46.2026547,10.2451851 45.8281364,10.2837018 45.4300795,10.2837018 C44.3471804,10.2837018 43.4868568,9.94347003 42.8491059,9.26300529 C42.2113525,8.58254311 41.8924758,7.66456065 41.8924771,6.50905276 C41.8924758,5.33643507 42.213493,4.41417201 42.8555273,3.74226179 C43.5018374,3.07036439 44.3857022,2.73441249 45.5071244,2.73440505 C45.8709379,2.73441249 46.2261959,2.77292925 46.5728985,2.84995558 C46.9195909,2.92271671 47.2555887,3.03398742 47.5808906,3.18376796" id="path5253"></path>
                                <polyline id="path5255" points="53.8086119 0.108841891 54.9899527 0.108841891 54.9899527 10.0975366 53.8086119 10.0975366 53.8086119 0.108841891"></polyline>
                                <path d="M60.2417862,3.73584231 C59.6083098,3.73584872 59.1075239,3.98406793 58.7394282,4.48050083 C58.3713274,4.97266533 58.1872777,5.64884845 58.1872789,6.50905276 C58.1872777,7.36926477 58.369187,8.04758806 58.7330081,8.5440252 C59.1011038,9.03618584 59.6040289,9.28226553 60.2417862,9.28226424 C60.8709739,9.28226553 61.3696182,9.03404568 61.7377228,8.53760597 C62.1058159,8.04116884 62.2898656,7.36498572 62.289872,6.50905276 C62.2898656,5.65740784 62.1058159,4.98336489 61.7377228,4.48692032 C61.3696182,3.98620784 60.8709739,3.73584872 60.2417862,3.73584231 M60.2417862,2.73440505 C61.2690334,2.73441249 62.0758546,3.06822448 62.6622512,3.73584231 C63.2486336,4.40347283 63.5418287,5.32787568 63.5418364,6.50905276 C63.5418287,7.68595849 63.2486336,8.61036146 62.6622512,9.28226424 C62.0758546,9.94988925 61.2690334,10.2837018 60.2417862,10.2837018 C59.2102491,10.2837018 58.4012887,9.94988925 57.8148998,9.28226424 C57.2327893,8.61036146 56.9417347,7.68595849 56.9417347,6.50905276 C56.9417347,5.32787568 57.2327893,4.40347283 57.8148998,3.73584231 C58.4012887,3.06822448 59.2102491,2.73441249 60.2417862,2.73440505" id="path5257"></path>
                                <path d="M70.2253979,6.41918105 C70.2253928,5.5632558 70.0477631,4.89991112 69.6925115,4.42914511 C69.3415279,3.95839013 68.8471633,3.72300976 68.2094138,3.72300335 C67.5759387,3.72300976 67.0815728,3.95839013 66.7263173,4.42914511 C66.3753376,4.89991112 66.1998484,5.5632558 66.199851,6.41918105 C66.1998484,7.27083367 66.3753376,7.93203817 66.7263173,8.40279713 C67.0815728,8.87355865 67.5759387,9.10894005 68.2094138,9.10893877 C68.8471633,9.10894005 69.3415279,8.87355865 69.6925115,8.40279713 C70.0477631,7.93203817 70.2253928,7.27083367 70.2253979,6.41918105 M71.40674,9.20523098 C71.4067272,10.4292089 71.1349444,11.3386332 70.5913569,11.9335053 C70.0477631,12.5326539 69.2152615,12.8322288 68.0938484,12.8322314 C67.6786639,12.8322288 67.2870233,12.8001314 66.9189276,12.7359392 C66.5508268,12.6760209 66.1934283,12.5818688 65.8467321,12.4534818 L65.8467321,11.3043969 C66.1934283,11.4926998 66.5358462,11.6317889 66.8739857,11.7216632 C67.2121201,11.8115336 67.5566772,11.8564695 67.9076581,11.8564721 C68.6823738,11.8564695 69.2623439,11.6531868 69.6475683,11.2466214 C70.0327825,10.844335 70.2253928,10.2344856 70.2253979,9.41707309 L70.2253979,8.83290185 C69.9814205,9.25658735 69.6689639,9.57328106 69.2880306,9.782983 C68.9070858,9.99268622 68.451243,10.0975366 67.9204996,10.0975366 C67.0387714,10.0975366 66.3282553,9.76158516 65.7889488,9.08967981 C65.249641,8.41777703 64.9799871,7.52761163 64.9799871,6.41918105 C64.9799871,5.30647783 65.249641,4.41417201 65.7889488,3.74226179 C66.3282553,3.07036439 67.0387714,2.73441249 67.9204996,2.73440505 C68.451243,2.73441249 68.9070858,2.83926371 69.2880306,3.04895911 C69.6689639,3.25866862 69.9814205,3.57536208 70.2253979,3.99904065 L70.2253979,2.90773078 L71.40674,2.90773078 L71.40674,9.20523098" id="path5259"></path>
                                <path d="M76.6264782,3.73584231 C75.992998,3.73584872 75.4922159,3.98406793 75.1241189,4.48050083 C74.7560092,4.97266533 74.5719607,5.64884845 74.5719607,6.50905276 C74.5719607,7.36926477 74.7538674,8.04758806 75.1176937,8.5440252 C75.4857906,9.03618584 75.9887145,9.28226553 76.6264782,9.28226424 C77.2556621,9.28226553 77.7543025,9.03404568 78.1224122,8.53760597 C78.4904963,8.04116884 78.6745576,7.36498572 78.6745576,6.50905276 C78.6745576,5.65740784 78.4904963,4.98336489 78.1224122,4.48692032 C77.7543025,3.98620784 77.2556621,3.73584872 76.6264782,3.73584231 M76.6264782,2.73440505 C77.6537177,2.73441249 78.4605376,3.06822448 79.046938,3.73584231 C79.6333256,4.40347283 79.926513,5.32787568 79.9265258,6.50905276 C79.926513,7.68595849 79.6333256,8.61036146 79.046938,9.28226424 C78.4605376,9.94988925 77.6537177,10.2837018 76.6264782,10.2837018 C75.5949295,10.2837018 74.7859807,9.94988925 74.1995803,9.28226424 C73.6174762,8.61036146 73.3264177,7.68595849 73.3264177,6.50905276 C73.3264177,5.32787568 73.6174762,4.40347283 74.1995803,3.73584231 C74.7859807,3.06822448 75.5949295,2.73441249 76.6264782,2.73440505" id="path5261"></path>
                            </g>
                            <g id="g5278" transform="translate(32.530846, 32.625387) rotate(-45.000000) translate(-32.530846, -32.625387) translate(9.530846, 9.625387)">
                                <path d="M45.404574,22.6958514 C45.404574,35.2216798 35.2490209,45.3758695 22.7215105,45.3758695 C10.1940002,45.3758695 0.0384462782,35.2216798 0.0384462782,22.6958514 C0.0384462782,10.1700228 10.1940002,0.015832572 22.7215105,0.015832572 C35.2490209,0.015832572 45.404574,10.1700228 45.404574,22.6958514 Z" id="path4711" fill="url(#linearGradient-1)"></path>
                                <path d="M36.5325699,31.7254831 C36.5325699,39.3520965 30.3491483,45.5346879 22.7215108,45.5346879 C15.0938733,45.5346879 8.91045126,39.3520965 8.91045126,31.7254831 C8.91045126,24.0988695 15.0938733,17.9162778 22.7215108,17.9162778 C30.3491483,17.9162778 36.5325699,24.0988695 36.5325699,31.7254831 Z" id="path4713" fill="#EEEEEE"></path>
                            </g>
                        </g>
                    </g>
                </g>
            </g>
        </g>
    </g>
</svg>